<svg xmlns="http://www.w3.org/2000/svg" width="256" height="256"><path fill="#1976D2" fill-opacity=".016" fill-rule="evenodd" d="M0 128.004v128.004l128.25-.254 128.25-.254.254-127.75L257.008 0H0zm.485.496c0 70.4.119 99.053.265 63.672s.146-92.98 0-128S.485 58.1.485 128.5"/><path fill="#1976D2" fill-opacity=".083" fill-rule="evenodd" d="M90.86 1.517c-2.614.833-6.846 3.463-9.694 6.023-7.936 7.135-8.793 10.48-9.675 37.727-.415 12.816-1.162 23.03-1.709 23.368-.535.331-5.542.556-11.127.5-5.585-.055-16.468.264-24.184.71-12.681.734-14.477 1.074-18.685 3.54-6.108 3.58-11.075 9.185-13.299 15.01-1.57 4.111-1.713 6.675-1.138 20.403 1.069 25.514 3.399 51.664 4.928 55.313 3.513 8.385 11.548 13.887 20.289 13.892 7.802.004 37.561-4.276 36.576-5.261-.483-.483-9.018-1.908-18.966-3.166-19.266-2.437-22.642-3.601-23.798-8.207-.36-1.434-.143-10.54.482-20.238.626-9.697 1.432-23.631 1.793-30.963.464-9.456 1.067-13.745 2.072-14.75 1.145-1.145 6.073-1.42 25.596-1.428 23.259-.009 24.371-.099 29.217-2.356 6.355-2.959 12.839-10.243 15.053-16.909 1.47-4.424 1.626-8.122 1.157-27.342-.513-21.013-.437-22.339 1.393-24.304 1.494-1.604 3.157-2.079 7.275-2.079 2.936 0 16.688-.899 30.56-1.998 32.742-2.594 32.012-2.928 34.517 15.781C171.996 53.482 172.257 55 172.971 55c.775 0 4.079-25.468 4.021-31-.073-7.097-6.645-16.427-13.353-18.956-2.971-1.12-32.538-3.512-55.139-4.46-9.936-.417-14.094-.197-17.64.933m96.382 52.479c-1.241.52-6.247 3.81-11.124 7.312-9.205 6.609-21.831 13.388-28.368 15.231-.412.116-.863.302-1 .413-.512.412-4.634 1.065-19.246 3.048-25.505 3.461-36.19 7.456-46.302 17.311-10.437 10.173-14.348 24.671-11.064 41.022.626 3.117 1.432 5.667 1.791 5.667.36 0 1.439-4.153 2.398-9.229 3.075-16.268 9.553-24.896 22.391-29.822 4.975-1.909 8.714-2.33 26.782-3.014 13.208-.5 23.783-1.418 28.5-2.475 7.357-1.648 23.578-7.729 25.45-9.541 1.849-1.789 2.174-.85 1.842 5.331-1.252 23.311-6.166 37.778-15.83 46.61-10.282 9.398-38.628 21.14-51.031 21.14-1.822 0-3.571.417-3.885.926-1.102 1.782 10.936 3.551 23.454 3.445 14.753-.124 23.921-2.225 36.71-8.415 23.76-11.501 35.594-37.941 35.466-79.242-.038-12.214-.361-15.421-1.861-18.435-3.075-6.182-9.865-9.463-15.073-7.283m33.008 26.233c-3.988.528-7.25 1.315-7.25 1.748 0 .432 3.785 1.102 8.41 1.487 9.814.817 14.283 2.756 16.931 7.343 1.86 3.22 1.867 3.908.275 26.5-.899 12.756-1.903 27.243-2.232 32.193-.898 13.537.994 12.728-28.863 12.332-23.763-.315-25.247-.226-29.521 1.782-5.757 2.706-11.695 8.65-14.37 14.386-1.888 4.049-2.15 6.87-2.614 28.17-.284 13.018-.89 24.043-1.348 24.5-.457.456-14.407 1.122-31 1.48-27.936.602-30.303.52-31.997-1.107-1.529-1.469-2.076-4.937-3.337-21.15-3.386-43.567.629-61.256 17.478-76.991 4.141-3.867 11.281-9.324 15.866-12.126s8.177-5.254 7.982-5.45c-.869-.868-14.964 4.287-23.16 8.469-21.765 11.108-33.18 30.192-36.422 60.891-1.627 15.406-1.81 47.05-.301 52.022 1.987 6.545 7.053 12.384 13.692 15.782l5.883 3.01 34.821.298c32.436.278 35.115.168 39.125-1.605 6.068-2.685 11.385-7.667 14.514-13.603 2.668-5.061 2.685-5.229 3.006-29.59.178-13.475.629-24.806 1.002-25.179.374-.374 11.026-1.178 23.671-1.787 20.462-.986 23.543-1.361 28.006-3.404 6.064-2.776 11.168-7.684 13.632-13.108 2.73-6.011 2.579-11.708-1.717-64.522-.986-12.133-4.536-18.208-12.912-22.098-4.371-2.031-6.407-2.11-17.25-.673"/><path fill="#1976D2" fill-opacity=".257" fill-rule="evenodd" d="M92.365 1.039c-4.77 1.459-12.539 7.053-15.098 10.873C72.849 18.506 72 23.913 72 45.459c0 16.191-.29 20.51-1.491 22.225-1.436 2.05-2.352 2.141-24.75 2.472-23.153.342-23.285.357-28.983 3.155-6.905 3.391-12.121 9.2-14.387 16.024-1.887 5.681-1.598 19.333 1.115 52.71 1.665 20.483 2.838 24.326 9.119 29.855 6.873 6.049 10.526 6.551 29.698 4.077 25.653-3.309 25.918-3.134-11.606-7.666-5.294-.639-9.377-3.291-10.79-7.008-.589-1.549-.391-10.861.544-25.618.809-12.752 1.607-26.717 1.775-31.033.247-6.358.669-8.115 2.222-9.25C25.979 94.295 31.253 94 49.513 94c18.428 0 24.071-.32 27.753-1.575 6.789-2.313 12.904-8.184 16.22-15.573l2.811-6.264-.569-22.873c-.692-27.813-1.498-26.117 12.874-27.089 5.444-.368 19.066-1.391 30.271-2.274 28.503-2.246 28.581-2.197 31.613 19.648.954 6.875 2.06 12.853 2.458 13.283.397.431 1.53-5.534 2.517-13.257 2.047-16.01 1.478-20.218-3.56-26.33-5.198-6.306-9.187-7.481-30.919-9.109C112.845.479 95.952-.058 92.365 1.039m91.533 55.408c-24.54 17.672-32.717 21.212-56.626 24.515-17.743 2.452-24.693 4.136-32.772 7.941C75.44 97.881 67.082 115.272 70.905 138c.827 4.916.782 5.004 2.996-5.798 2.399-11.704 9.345-21.736 18.164-26.235 6.557-3.345 16.314-4.931 30.461-4.95 22.138-.029 34.479-2.406 50.039-9.637 3.264-1.516 6.345-2.785 6.846-2.819 1.506-.101.615 15.291-1.469 25.368-3.98 19.246-10.186 27.825-27.01 37.339-8.382 4.74-23.86 10.482-31.351 11.631-11.989 1.839 3.167 4.962 18.349 3.781 13.85-1.077 32.175-7.686 41.342-14.91 8.22-6.478 16.397-21.132 20.24-36.27 4.131-16.272 5.461-46.051 2.42-54.152-2.68-7.138-11.572-9.555-18.034-4.901m36.352 24.285c-6.486.584-5.072 1.904 2.827 2.639 7.376.685 11.266 2.141 14.106 5.278 3.47 3.835 3.727 6.55 2.315 24.488-.751 9.549-1.681 23.37-2.066 30.713-.608 11.597-.98 13.676-2.837 15.835l-2.137 2.484-17.479-.28c-31.246-.502-31.938-.458-37.479 2.376-5.912 3.023-10.396 7.538-13.64 13.735-2.249 4.296-2.371 5.577-2.687 28.257-.293 20.976-.527 23.859-2.002 24.62-.919.475-14.946 1.15-31.171 1.502-24.65.533-29.799.405-31.317-.78-3.94-3.074-5.87-55.051-2.622-70.599 2.168-10.379 6.506-17.793 15.833-27.059 4.888-4.857 11.763-10.43 15.893-12.884 4.004-2.378 7.068-4.535 6.81-4.793-.715-.715-13.396 3.665-19.597 6.768-17.758 8.886-29.625 23.735-34.342 42.968-3.361 13.708-4.081 21.751-4.12 46-.044 28.09.2 29.078 9.083 36.898 7.823 6.886 10.194 7.222 48.518 6.891 37.485-.325 37.377-.305 45.179-8.107 7.655-7.655 8.182-10.03 8.182-36.881 0-18.068.308-24.008 1.296-25 .917-.921 8.076-1.635 24.5-2.443 17.21-.848 24.178-1.564 26.976-2.773 5.736-2.479 11.238-8.019 13.748-13.843 2.095-4.861 2.214-6.188 1.636-18.242-.968-20.197-3.559-49.574-4.763-54-2.453-9.018-10.008-14.59-19.393-14.303-2.75.084-6.912.325-9.25.535"/><path fill="#1976D2" fill-opacity=".292" fill-rule="evenodd" d="M94.768 1.15c-5.82.835-8.302 2.154-13.528 7.184-6.994 6.734-7.91 10.595-8.766 36.954-.665 20.476-.923 22.882-2.541 23.748-.991.53-7.794.987-15.117 1.015-20.724.079-33.71 1.341-38.338 3.725-5.402 2.782-9.933 7.723-12.586 13.724-2.657 6.009-2.722 13.622-.399 46.5 1.89 26.741 2.017 27.499 5.554 33 6.298 9.797 12.777 11.391 34.529 8.494 7.108-.946 13.487-1.745 14.174-1.774.688-.029 1.25-.367 1.25-.75s-7.088-1.507-15.75-2.498c-8.663-.991-16.98-2.41-18.483-3.154s-3.477-2.79-4.385-4.547c-1.484-2.868-1.537-4.936-.52-20.233.622-9.371 1.428-23.46 1.79-31.309.413-8.949 1.13-14.916 1.923-16 1.139-1.557 3.69-1.729 25.595-1.729 23.435 0 24.522-.087 29.557-2.363 5.796-2.621 12.533-9.289 15.099-14.947 1.441-3.177 1.635-6.94 1.393-27.054-.155-12.851-.027-24.165.283-25.143.878-2.767 5.013-3.795 17.998-4.476 6.6-.346 19.577-1.281 28.838-2.078 24.335-2.095 25.55-1.248 28.306 19.737.891 6.778 1.926 12.667 2.301 13.087 1.001 1.121 3.443-25.485 2.738-29.831-.812-5.003-4.872-10.608-9.614-13.273-5.446-3.061-12.712-3.808-62.673-6.443-2.257-.119-6.14.076-8.628.434M221.5 80.947l-5 .634 6 .788c8.289 1.089 11.856 2.315 14.286 4.91 4.194 4.477 4.416 6.767 2.822 29.174-.823 11.576-1.801 25.734-2.172 31.462-.597 9.212-.956 10.696-3.109 12.849l-2.433 2.433-23.197-.702c-22.092-.668-23.462-.601-28.767 1.407-7.041 2.664-14.239 9.661-16.444 15.985-1.214 3.482-1.753 10.298-2.198 27.804l-.59 23.192-2.599.991c-1.43.545-15.351 1.174-30.936 1.398-25.114.362-28.566.222-30.353-1.225-2.855-2.311-4.006-14.185-4.173-43.047-.15-25.684.416-29.852 5.53-40.746 4.64-9.886 15-19.766 32.458-30.956 3.329-2.133-11.929 3.317-18.125 6.474-19.423 9.899-29.457 23.808-34.443 47.745-2.8 13.441-4.683 52.178-2.98 61.312 2.299 12.337 10.684 20.422 23.03 22.207 3.516.508 19.25.933 34.965.944 32.013.022 34.527-.377 41.851-6.646 2.287-1.957 5.376-5.87 6.867-8.696 2.705-5.129 2.711-5.183 3.023-29.887.286-22.586.47-24.832 2.107-25.708.986-.528 11.988-1.425 24.45-1.993 25.108-1.146 27.624-1.728 33.962-7.849 8.108-7.83 8.898-11.953 7.098-37.062-3.185-44.417-3.719-47.359-9.596-52.841-5.121-4.777-10.042-5.781-21.334-4.351"/></svg>