<svg xmlns="http://www.w3.org/2000/svg" width="256" height="256"><path fill="#1976D2" fill-opacity=".016" fill-rule="evenodd" d="M0 128.004v128.004l128.25-.254 128.25-.254.254-127.75L257.008 0H0zm.485.496c0 70.4.119 99.053.265 63.672.146-35.38.146-92.98 0-128C.604 29.153.485 58.1.485 128.5"/><path fill="#1976D2" fill-opacity=".223" fill-rule="evenodd" d="M106.5 55.656c-19.313 2.297-32.007 5.11-47.143 10.448-25.792 9.098-46.343 24.971-54.996 42.481C.55 116.294.5 116.548.5 128c0 11.481.041 11.688 3.921 19.552 5.275 10.691 18.238 23.705 31.079 31.202 16.158 9.434 39.706 17.303 61.164 20.44 11.607 1.697 51.065 1.697 62.672 0 22.039-3.222 45.039-11.002 61.482-20.796 13.188-7.856 25.334-20.003 30.468-30.473 2.043-4.166 3.714-8.527 3.714-9.691 0-1.164.45-2.394 1-2.734.55-.34 1-4.218 1-8.618 0-5.079-.365-7.774-1-7.382-.562.347-1-.445-1-1.807 0-1.333-1.593-5.608-3.54-9.5-6.454-12.902-21.991-26.969-39.46-35.728-14.845-7.443-40.414-14.458-59.856-16.42-9.574-.966-38.701-1.214-45.644-.389m-.5 5.855c-41.922 5.757-75.067 26.752-83.13 52.657-2.308 7.418-2.453 19.507-.318 26.694 3.111 10.477 11.264 21.615 20.633 28.187 19.137 13.424 42.753 15.288 81.815 6.458 36.027-8.144 47.953-9.035 55.236-4.127 3.683 2.482 4.778 5.743 3.514 10.464-.493 1.839-.663 3.577-.377 3.862.781.781 16.291-6.964 23.244-11.608 7.649-5.109 19.017-17.026 22.6-23.693 14.628-27.213.867-57.745-33.922-75.264-25.211-12.695-58.785-17.82-89.295-13.63m81.031 27.243c-1.908.939-6.183 4.289-9.5 7.442-5.459 5.19-5.794 5.736-3.531 5.754 4.258.035 15.2-2.911 18.583-5.001 4.071-2.516 4.873-4.604 2.917-7.59-1.826-2.786-3.761-2.924-8.469-.605M51.792 90.402c-10.203 2.747-16.217 9.463-16.205 18.098.009 6.3 1.917 9.259 9.818 15.221 12.504 9.438 14.038 12.212 8.96 16.206-4.321 3.399-9.73 2.243-16.692-3.568-1.554-1.297-3.202-2.359-3.662-2.359-.459 0-1.133 1.912-1.496 4.25-.364 2.338-.87 4.996-1.126 5.907-.539 1.922 5.842 4.362 14.111 5.394 12.483 1.559 27.989-5.774 31.433-14.866 3.185-8.405.26-14.3-10.611-21.387-4.575-2.981-8.769-6.264-9.32-7.294-1.682-3.142-1.156-6.783 1.221-8.447 3.354-2.35 7.95-1.885 14.277 1.443 3.137 1.65 5.906 3 6.154 3 .248 0 .315-2.361.148-5.246l-.302-5.246-8-1.179c-10.169-1.498-12.909-1.488-18.708.073m97.912.023c-6.028 1.621-10.295 5.656-12.477 11.799-1.294 3.644-2.193 4.776-3.794 4.776-1.519 0-2.389.949-3.154 3.444-1.204 3.921-.875 4.556 2.363 4.556 1.966 0 2.238.407 1.833 2.75-.261 1.513-1.169 7.025-2.017 12.25-2.725 16.792-6.797 29.209-11.235 34.256-2.491 2.833-.697 3.169 6.504 1.22 5.658-1.531 7.572-2.654 11.773-6.902 6.304-6.375 8.817-13.305 11.18-30.824 1.649-12.231 1.814-12.75 4.07-12.75 1.739 0 2.73-.905 3.801-3.468C160.459 106.967 160.47 107 157 107c-3.393 0-3.585-.665-1.578-5.467 1.197-2.865 1.995-3.453 5.048-3.718 2.828-.246 4.078-1.029 5.67-3.555l2.044-3.24-2.657-1.01c-3.525-1.34-9.921-1.172-15.823.415m-46.635 17.616c-5.428 1.123-13.967 6.648-17.566 11.366-2.93 3.842-5.503 11.252-5.503 15.851 0 4.941 2.908 9.652 7.388 11.967 5.643 2.917 15.466 2.978 21.612.134 18.217-8.429 24.7-29.79 11.395-37.547-3.676-2.144-11.604-2.954-17.326-1.771m61.598-.374c-.367.366-.671 2.729-.676 5.25-.007 3.981-4.589 28.358-6.554 34.871l-.69 2.287 9.876-.287 9.877-.288.242-3c.625-7.757 2.623-21.825 4.221-29.719.971-4.796 1.527-8.958 1.235-9.25-.775-.775-16.745-.651-17.531.136m33.486.407c-9.327 1.834-14.536 7.635-10.68 11.896 3.411 3.769 10.169 1.964 13.633-3.642 3.015-4.878 5.31-4.467 4.6.825-.738 5.505-3.414 7.853-13.465 11.82-5.291 2.088-9.153 4.323-10.75 6.22-4.068 4.834-3.017 10.45 2.489 13.297 3.867 1.999 7.62 1.875 12.677-.421 4.097-1.861 4.164-1.86 4.667.062.464 1.776 1.296 1.923 9.343 1.659l8.833-.29.668-7c.367-3.85 1.38-10.292 2.25-14.315 2.813-13.006 1.952-17.297-3.966-19.77-3.681-1.538-13.384-1.701-20.299-.341m-94.095 7.868c-4.718 4.718-8.125 25.327-4.422 26.749 3.939 1.511 7.651-4.562 10.086-16.504 2.157-10.577-.509-15.4-5.664-10.245M.349 128c0 4.675.173 6.588.383 4.25.211-2.338.211-6.163 0-8.5-.21-2.338-.383-.425-.383 4.25m199.401 4.174c-3.007 2.422-3.75 3.694-3.75 6.423 0 2.981.316 3.403 2.551 3.403 1.984 0 2.886-.801 4.056-3.601.827-1.981 1.367-4.872 1.199-6.423l-.306-2.822zm42.323 43.461c-2.75 3.495-2.618 6.911.382 9.91 4.906 4.907 12.545 1.811 12.545-5.084 0-7.128-8.593-10.336-12.927-4.826m2.127.565c-1.452 1.452-1.596 7.437-.2 8.3.61.377 1-1.134 1-3.875 0-4.133.22-4.525 2.75-4.909 2.714-.411 2.716-.418.2-.566-1.402-.083-3.09.39-3.75 1.05m6.919 1.3c.004 1.1-.133 2.675-.305 3.5-.173.825.136 1.725.686 2 1.39.695 1.851-3.557.621-5.721-.937-1.649-1.01-1.633-1.002.221m-4.524 6.114c-.776 2.02-.257 2.676 1.76 2.224 1.271-.284 1.302-.621.196-2.117-1.211-1.64-1.365-1.649-1.956-.107"/><path fill="#1976D2" fill-opacity=".349" fill-rule="evenodd" d="M106 56.13c-39.874 4.053-76.065 19.624-93.063 40.039-27.245 32.721-9.454 71.168 42.48 91.798C65.8 192.092 83.271 196.58 97 198.65c15.935 2.403 46.286 2.362 62.5-.084 38.967-5.878 71.675-21.939 86.236-42.344 5.06-7.091 9.204-16.272 9.24-20.472.013-1.512.474-2.75 1.024-2.75.557 0 1-2.686 1-6.059 0-3.332-.394-5.816-.875-5.518-.481.297-1.15-1.139-1.486-3.191-.335-2.053-1.897-6.437-3.469-9.744C234.249 72.913 169.749 49.65 106 56.13m2.5 4.559c-16.186 2.1-34.971 7.492-46.671 13.396-43.651 22.027-54.48 60.453-25.243 89.573 12.389 12.339 26.299 17.46 47.511 17.49 14.206.02 21.368-1.001 47.903-6.829 25.666-5.638 39.167-6.666 46.269-3.524 5.979 2.645 7.169 6.765 4.182 14.487-.638 1.648-.283 1.624 4.68-.308 19.734-7.687 37.537-23.175 44.484-38.701 9.835-21.978.424-47.279-23.794-63.971-21.909-15.101-48.492-22.446-80.17-22.152-8.883.082-17.501.325-19.151.539m74.827 30.936c-6.134 4.606-10.327 8.507-10.327 9.607 0 2.126 18.852-3.306 21.454-6.181 1.215-1.343 1.58-2.779 1.145-4.511-.99-3.946-6.185-3.487-12.272 1.085M49.558 91.42c-5.17 1.936-8.528 4.492-11.397 8.672-1.949 2.841-2.271 4.363-1.937 9.144.471 6.733 1.572 8.167 12.956 16.873 8.072 6.174 9.626 8.516 7.852 11.83-3.283 6.136-12.747 5.166-20.677-2.119-2.556-2.349-2.914-1.894-3.826 4.866l-.699 5.186 5.266 1.564c11.356 3.372 25.972 1.089 33.871-5.291 1.943-1.57 4.381-4.889 5.417-7.377 3.485-8.365.434-14.696-10.194-21.152-9.979-6.063-12.669-10.466-9.135-14.959C58.76 96.489 59.968 96 63.612 96c4.421 0 11.551 2.837 12.993 5.169.971 1.571 2.23-1.571 2.325-5.802.085-3.79-.917-4.107-15.43-4.886-7.456-.4-11.003-.161-13.942.939m99.356-.464C142.889 92.781 137 99.667 137 104.886c0 1.575-.623 2.114-2.441 2.114-2.713 0-2.997.306-3.94 4.25-.554 2.32-.336 2.75 1.393 2.75 1.128 0 2.283.606 2.568 1.347.723 1.885-3.36 25.709-5.761 33.608-1.094 3.6-3.33 8.953-4.969 11.896-1.64 2.943-2.839 5.478-2.666 5.632.174.155 2.791-.349 5.816-1.12 13.757-3.507 18.922-11.466 22.901-35.285 2.29-13.705 2.837-15.597 4.599-15.901 4.542-.785 6.324-7.177 2-7.177-1.962 0-2.5-.509-2.5-2.365 0-3.666 3.757-7.805 6.754-7.441 2.784.338 7.03-4.117 5.808-6.094-.776-1.255-13.636-1.36-17.648-.144m52.396 17.057c-9.465 1.304-14.31 4.387-14.31 9.107 0 6.237 7.398 6.039 13.152-.353 5.717-6.351 9.107-3.462 4.986 4.249-1.575 2.947-3.457 4.18-12.203 7.999-8.285 3.617-10.718 5.161-12.241 7.769-2.216 3.795-1.714 7.188 1.507 10.188 2.671 2.489 10.15 2.744 15.453.528 1.975-.825 3.808-1.5 4.075-1.5.267 0 .226.675-.091 1.5-.484 1.263.815 1.5 8.238 1.5h8.812l1.148-7.75c.631-4.262 1.863-11.764 2.738-16.671 1.744-9.776 1.269-12.334-2.778-14.966-3.041-1.978-10.842-2.653-18.486-1.6m-100.546.983c-7.248 2.182-16.58 10.911-18.803 17.588-4.592 13.789 1.598 22.411 16.093 22.414 7.786.002 14.577-2.933 20.835-9.006 5.262-5.107 7.219-9.091 7.843-15.968.673-7.425-1.368-11.502-7.048-14.081-4.41-2.002-13.848-2.475-18.92-.947m63.731 5.254c-.868 7.73-4.975 28.28-6.395 32l-1.05 2.75h9.475c8.35 0 9.477-.208 9.495-1.75.038-3.489 2.895-22.925 4.419-30.065.859-4.024 1.561-7.736 1.561-8.25 0-.514-3.781-.935-8.402-.935h-8.402zm-60.244 1.286c-2.389 1.674-5.57 10.705-6.699 19.02-.562 4.142-.346 5.477 1.198 7.383 3.744 4.625 8.068-.869 10.789-13.709 1.754-8.275 1.818-11.473.261-13.03-1.593-1.593-2.908-1.513-5.549.336M.32 128c0 3.575.182 5.037.403 3.25.222-1.787.222-4.713 0-6.5-.221-1.787-.403-.325-.403 3.25m199.393 3.678c-3.811 2.711-5.425 6.025-4.327 8.887.953 2.482 5.879 1.418 7.241-1.565 1.557-3.41 2.649-10 1.656-10-.444 0-2.5 1.205-4.57 2.678m43.231 43.166c-3.333 2.699-3.086 7.777.53 10.887 3.251 2.797 6.944 2.462 9.776-.884 5.627-6.65-3.503-15.511-10.306-10.003m2.284.386c-5.068 2.443-3.062 10.77 2.595 10.77 3.646 0 5.177-1.669 5.177-5.643 0-2.218-.703-3.736-2.223-4.8-2.55-1.787-2.523-1.785-5.549-.327M245 180c0 2.2.477 4 1.059 4s.8-.419.484-.931a1.086 1.086 0 0 1 .336-1.494c.501-.31 1.169.109 1.485.931.315.822 1.092 1.494 1.727 1.494.844 0 .859-.355.055-1.324-.799-.962-.796-1.626.011-2.433 1.73-1.73.175-4.243-2.626-4.243-2.286 0-2.531.387-2.531 4m1.597-2.156c-.346.56-.142 1.319.453 1.687 1.538.95 2.53-.351 1.246-1.635-.718-.718-1.277-.735-1.699-.052"/><path fill="#1976D2" fill-opacity=".59" fill-rule="evenodd" d="M111.5 56.097C78.448 58.799 45.695 69.515 27 83.743 6.864 99.068-2.356 117.829 1.399 135.837c9.497 45.549 87.255 74.476 164.433 61.171 40.565-6.993 73.479-26.179 84.609-49.318 1.956-4.067 3.845-9.499 4.198-12.07.352-2.571 1.027-4.914 1.501-5.206.473-.293.86-1.882.86-3.532 0-1.65-.393-2.757-.874-2.46-.48.297-1.165-1.661-1.522-4.352-.982-7.399-6.969-18.36-14.241-26.068C220.52 72.967 185.55 59.324 143 56.017c-14.03-1.091-17.278-1.082-31.5.08m.116 3.929c-27.297 3.127-49.133 11.018-66.881 24.172-9.233 6.843-15.057 13.74-20.035 23.727l-4.2 8.424v11.576c0 10.981.166 11.926 3.245 18.427 10.913 23.041 32.545 35.662 61.093 35.642 10.949-.007 22.915-1.812 46.073-6.947 30.32-6.724 45.252-7.329 50.533-2.048 2.192 2.192 2.49 8.388.575 11.965-1.552 2.9.292 2.672 8.593-1.065 22.832-10.278 40.661-29.084 44.487-46.923 1.606-7.491.593-18.312-2.404-25.689-12.113-29.809-51.741-50.284-100.195-51.766-7.15-.219-16.548.008-20.884.505m73.305 30.912c-2.431 1.616-6.147 4.712-8.256 6.879l-3.834 3.941 5.247-.954c7.709-1.401 15.782-4.675 16.961-6.877 1.42-2.653-.46-5.927-3.403-5.927-1.261 0-4.283 1.322-6.715 2.938m-134.278.617c-6.671 2.446-10.432 5.377-12.572 9.798-4.027 8.319-1.959 14.356 7.315 21.352C54.468 129.556 58 133.145 58 135.522c0 2.248-3.239 5.733-6.357 6.839-2.849 1.01-8.952-1.03-13.216-4.419-3.57-2.837-3.891-2.919-4.542-1.16-.385 1.041-.854 3.425-1.043 5.299-.319 3.175-.069 3.505 3.658 4.847 5.82 2.096 18.85 1.94 25.341-.303C71.237 143.377 77 136.714 77 129.097c0-6.451-1.828-8.929-11.262-15.273-9.551-6.422-11.673-9.264-10.15-13.593 2.024-5.755 9.92-6.467 18.162-1.637l4.25 2.49v-8.738l-7.75-1.18c-9.804-1.492-14.744-1.394-19.607.389m99.857-.626c-6.621 1.597-9.728 4.521-12.448 11.71-1.26 3.331-2.478 4.958-3.868 5.17-1.197.183-2.451 1.517-3.055 3.25-.939 2.695-.834 2.941 1.256 2.941 1.255 0 2.497.215 2.76.478.262.263-.336 6-1.33 12.75-2.081 14.125-6.666 29.8-10.27 35.11-2.842 4.189-2.339 4.384 5.396 2.087 3.797-1.128 6.649-2.92 10.036-6.307 5.59-5.59 8.144-12.324 10.476-27.618 2.639-17.304 2.335-16.341 5.264-16.687 1.906-.225 2.852-1.07 3.365-3.006.633-2.387.413-2.729-1.934-3-2.232-.259-2.616-.756-2.446-3.16.333-4.694 2.884-7.647 6.605-7.647 2.537 0 3.642-.643 4.972-2.895 1.54-2.607 1.553-2.955.134-3.5-2.065-.792-11.101-.596-14.913.324m-50.295 18.912c-10.563 3.755-17.862 12.439-18.899 22.484C80.149 143.537 85.271 148.5 98 148.5c6.423 0 8.259-.421 12.788-2.93 9.788-5.422 16.212-15.172 16.212-24.604 0-3.542-3.85-9.114-7.537-10.907-4.672-2.272-13.209-2.369-19.258-.218m64.775 2.409c-.02 4.117-5.098 31.46-6.501 35-.629 1.588.136 1.75 8.266 1.75h8.959l.603-7.75c.531-6.816 3.875-26.654 5.31-31.5.465-1.571-.359-1.75-8.05-1.75H165zm30.069-2.303c-5.52 1.906-8.049 4.119-8.049 7.044 0 2.525 2.109 4.009 5.7 4.009 3.25 0 4.197-.678 9.049-6.479 2.566-3.068 4.598-2.907 5.083.402.458 3.13-1.628 7.772-4.513 10.041-1.326 1.043-5.653 3.113-9.615 4.6-8.919 3.348-12.704 6.629-12.704 11.012 0 4.748 2.762 7.53 8.07 8.128 4.026.454 7.114-.362 13.18-3.485.412-.212.75.552.75 1.698 0 1.947.553 2.083 8.5 2.083h8.5v-3.307c0-1.819.9-8.206 2-14.193 3.029-16.484 2.74-19.549-2.072-22.037-4.102-2.122-17.094-1.858-23.879.484m-91.923 5.927c-2.227 2.227-3.598 6.416-5.336 16.307-1.92 10.928 1.964 15.466 7.552 8.825 2.969-3.529 5.943-15.535 5.473-22.098-.282-3.947-.596-4.44-3.004-4.719-1.679-.193-3.44.44-4.685 1.685M.232 128c0 1.925.206 2.713.457 1.75.252-.963.252-2.537 0-3.5-.251-.963-.457-.175-.457 1.75m199.087 3.753c-5.416 4.855-6.241 7.597-2.936 9.762 3.738 2.45 6.206.63 7.532-5.554 1.996-9.307 1.549-9.716-4.596-4.208m47.494 41.93c.721.289 1.584.253 1.916-.079.332-.332-.258-.568-1.312-.525-1.165.048-1.402.285-.604.604m-4.261 2.259c-.966 1.068-1.522 2.531-1.234 3.25.404 1.007.542.981.603-.113.043-.782.824-2.244 1.734-3.25.91-1.006 1.43-1.829 1.155-1.829-.275 0-1.291.874-2.258 1.942m8.777-.691c.941.688 2.113 2.601 2.605 4.25.63 2.114.919 2.401.98.972.101-2.381-2.53-6.473-4.162-6.473-.624 0-.364.563.577 1.251m-5.662 1.416c-.367.366-.615 2.279-.551 4.25.064 1.97.322 2.796.573 1.833.252-.963.852-1.75 1.335-1.75.482 0 1.37.787 1.974 1.75.947 1.51 1.013 1.442.482-.5-.358-1.312-.17-2.25.453-2.25 1.664 0 1.253-2.715-.515-3.393-2.033-.78-2.926-.766-3.751.06m.792 1.4c-.92 1.489.147 2.298 2.061 1.564.884-.339 1.327-1.07.984-1.624-.81-1.311-2.215-1.284-3.045.06M241 181.642c0 .537.7 1.849 1.555 2.917 1.467 1.83 1.487 1.798.365-.559-1.458-3.061-1.92-3.628-1.92-2.358m10.139 3.391c-1.298 1.082-1.93 1.967-1.405 1.967.526 0 1.771-.9 2.766-2 2.287-2.527 1.695-2.513-1.361.033"/></svg>